<svg xmlns="http://www.w3.org/2000/svg" viewBox="0 0 24 24" fill="none" stroke="currentColor" stroke-width="2" stroke-linecap="round" stroke-linejoin="round">
  <defs>
    <linearGradient id="shieldGrad" x1="0%" y1="0%" x2="100%" y2="100%">
      <stop offset="0%" stop-color="#8b5cf6" />
      <stop offset="100%" stop-color="#3b82f6" />
    </linearGradient>
  </defs>
  <!-- Background Shield -->
  <path d="M12 22s8-4 8-10V5l-8-3-8 3v7c0 6 8 10 8 10z" fill="url(#shieldGrad)" stroke="#6366f1" stroke-width="1.5" />
  <!-- Inner Glow/Details -->
  <path d="M12 22s8-4 8-10V5l-8-3-8 3v7c0 6 8 10 8 10z" opacity="0.3" fill="none" stroke="#ffffff" stroke-width="0.5" />
  <!-- Lock Shackle -->
  <path d="M9 11V8.5a3 3 0 0 1 6 0V11" stroke="#ffffff" stroke-width="2" fill="none" />
  <!-- Lock Body -->
  <rect x="7" y="11" width="10" height="7" rx="1.5" fill="#ffffff" />
  <!-- Keyhole -->
  <circle cx="12" cy="14" r="1" fill="#3b82f6" />
  <path d="M12 15v2" stroke="#3b82f6" stroke-width="1" />
</svg>